<?xml version="1.0" encoding="UTF-8" standalone="no"?><!DOCTYPE svg PUBLIC "-//W3C//DTD SVG 1.1//EN" "http://www.w3.org/Graphics/SVG/1.1/DTD/svg11.dtd"><svg width="100%" height="100%" viewBox="0 0 512 512" version="1.1" xmlns="http://www.w3.org/2000/svg" xmlns:xlink="http://www.w3.org/1999/xlink" xml:space="preserve" xmlns:serif="http://www.serif.com/" style="fill-rule:evenodd;clip-rule:evenodd;stroke-linejoin:round;stroke-miterlimit:2;"><g transform="matrix(0.359515,0,0,0.359515,-409.268,-329.705)"><g transform="matrix(41.6667,0,0,41.6667,1760.16,1145.38)"><path d="M0.199,-0.72l0.191,0.483c0.005,0.012 0.01,0.026 0.015,0.041c0.005,0.016 0.009,0.031 0.012,0.045c0.005,0.017 0.009,0.034 0.013,0.051l0.008,-0c-0,-0 -0,-0.004 -0.001,-0.011c-0.001,-0.007 -0.002,-0.016 -0.003,-0.028c-0.001,-0.012 -0.003,-0.026 -0.004,-0.042c-0.001,-0.015 -0.001,-0.032 -0.001,-0.049l-0,-0.49l0.086,0l0,0.72l-0.114,-0l-0.188,-0.484c-0.005,-0.015 -0.011,-0.031 -0.016,-0.047c-0.005,-0.016 -0.01,-0.031 -0.013,-0.044c-0.005,-0.015 -0.009,-0.031 -0.012,-0.046l-0.008,0c0.001,0.011 0.003,0.023 0.004,0.036c0.001,0.011 0.001,0.025 0.002,0.041c0.001,0.015 0.001,0.033 0.001,0.052l0,0.492l-0.086,0l0,-0.72l0.114,0Z" style="fill-rule:nonzero;"/></g><g transform="matrix(41.6667,0,0,41.6667,1785.16,1145.38)"><path d="M0.3,0.01c-0.034,-0 -0.065,-0.005 -0.092,-0.015c-0.026,-0.01 -0.049,-0.024 -0.068,-0.043c-0.019,-0.019 -0.034,-0.041 -0.044,-0.068c-0.011,-0.027 -0.016,-0.056 -0.016,-0.089l0,-0.14c0,-0.033 0.005,-0.063 0.016,-0.089c0.01,-0.027 0.025,-0.049 0.044,-0.068c0.019,-0.019 0.042,-0.033 0.069,-0.043c0.026,-0.01 0.057,-0.015 0.091,-0.015c0.068,0 0.122,0.019 0.161,0.057c0.039,0.038 0.059,0.09 0.059,0.157l0,0.141c0,0.067 -0.02,0.119 -0.058,0.157c-0.04,0.039 -0.093,0.058 -0.162,0.058Zm-0.13,-0.215c-0,0.042 0.011,0.075 0.034,0.099c0.023,0.024 0.055,0.036 0.096,0.036c0.04,-0 0.072,-0.012 0.095,-0.036c0.023,-0.024 0.035,-0.057 0.035,-0.099l-0,-0.14c-0,-0.042 -0.012,-0.075 -0.035,-0.099c-0.023,-0.024 -0.055,-0.036 -0.095,-0.036c-0.04,0 -0.072,0.012 -0.095,0.036c-0.023,0.024 -0.035,0.057 -0.035,0.099l-0,0.14Z" style="fill-rule:nonzero;"/></g><g transform="matrix(41.6667,0,0,41.6667,1810.16,1145.38)"><path d="M0.08,-0.345c0,-0.033 0.005,-0.063 0.013,-0.09c0.009,-0.027 0.022,-0.049 0.038,-0.067c0.016,-0.019 0.035,-0.033 0.058,-0.043c0.023,-0.01 0.048,-0.015 0.076,-0.015c0.041,0 0.074,0.009 0.101,0.028c0.027,0.018 0.044,0.044 0.053,0.077l0.008,0c-0.001,-0.011 -0.001,-0.023 -0.002,-0.034c-0.001,-0.01 -0.002,-0.02 -0.003,-0.031c0,-0.011 0,-0.021 0,-0.03l0,-0.17l0.09,0l0,0.72l-0.085,0l0,-0.095l-0.008,0c-0.009,0.033 -0.026,0.059 -0.053,0.078c-0.027,0.018 -0.06,0.027 -0.101,0.027c-0.028,-0 -0.053,-0.005 -0.076,-0.015c-0.023,-0.01 -0.042,-0.024 -0.058,-0.042c-0.016,-0.019 -0.029,-0.041 -0.038,-0.068c-0.008,-0.027 -0.013,-0.057 -0.013,-0.09l0,-0.14Zm0.09,0l0,0.14c0,0.042 0.012,0.075 0.035,0.1c0.023,0.025 0.054,0.037 0.094,0.037c0.037,0 0.067,-0.012 0.09,-0.037c0.022,-0.025 0.033,-0.058 0.033,-0.1l-0,-0.14c-0,-0.042 -0.011,-0.075 -0.034,-0.1c-0.022,-0.025 -0.052,-0.037 -0.089,-0.037c-0.041,0 -0.072,0.012 -0.095,0.036c-0.023,0.024 -0.034,0.058 -0.034,0.101Z" style="fill-rule:nonzero;"/></g><g transform="matrix(41.6667,0,0,41.6667,1835.16,1145.38)"><path d="M0.08,-0.35c0,-0.065 0.02,-0.117 0.059,-0.154c0.038,-0.037 0.092,-0.056 0.161,-0.056c0.069,0 0.122,0.019 0.161,0.056c0.039,0.037 0.059,0.089 0.059,0.154l-0,0.101l-0.35,-0l-0,0.044c-0,0.042 0.011,0.075 0.034,0.099c0.023,0.024 0.055,0.036 0.096,0.036c0.03,-0 0.056,-0.005 0.078,-0.014c0.022,-0.009 0.038,-0.023 0.049,-0.041l0.09,-0c-0.011,0.042 -0.037,0.075 -0.076,0.099c-0.039,0.024 -0.086,0.036 -0.141,0.036c-0.069,-0 -0.123,-0.019 -0.162,-0.056c-0.039,-0.037 -0.058,-0.089 -0.058,-0.154l-0,-0.15Zm0.09,0.026l0.26,-0l-0,-0.026c-0,-0.041 -0.011,-0.073 -0.034,-0.096c-0.023,-0.023 -0.055,-0.034 -0.096,-0.034c-0.041,0 -0.073,0.011 -0.096,0.034c-0.023,0.023 -0.034,0.055 -0.034,0.096l-0,0.026Z" style="fill-rule:nonzero;"/></g></g><g transform="matrix(0.359515,0,0,0.359515,-323.884,-313.027)"><g transform="matrix(41.6667,0,0,41.6667,1722.66,1145.38)"><path d="M0.095,-0l0,-0.72l0.425,0l0,0.082l-0.335,0l0,0.226l0.3,0l0,0.082l-0.3,0l0,0.248l0.335,0l0,0.082l-0.425,0Z" style="fill-rule:nonzero;"/></g><g transform="matrix(41.6667,0,0,41.6667,1747.66,1145.38)"><path d="M0.048,-0l0.199,-0.282l-0.187,-0.268l0.108,0l0.115,0.175c0.003,0.005 0.006,0.009 0.008,0.014c0.002,0.004 0.004,0.008 0.005,0.011c0.001,0.003 0.002,0.007 0.003,0.01l0.004,-0c0.001,-0.003 0.002,-0.007 0.003,-0.01c0.001,-0.003 0.003,-0.007 0.005,-0.012c0.002,-0.004 0.005,-0.008 0.008,-0.013l0.115,-0.175l0.107,0l-0.187,0.267l0.198,0.283l-0.108,-0l-0.123,-0.186c-0.003,-0.005 -0.005,-0.009 -0.008,-0.014c-0.002,-0.004 -0.004,-0.008 -0.006,-0.012c-0.002,-0.005 -0.004,-0.009 -0.005,-0.013l-0.004,0c-0.001,0.005 -0.003,0.009 -0.005,0.013c-0.002,0.004 -0.004,0.008 -0.006,0.013c-0.002,0.005 -0.005,0.009 -0.008,0.013l-0.124,0.186l-0.107,-0Z" style="fill-rule:nonzero;"/></g><g transform="matrix(41.6667,0,0,41.6667,1772.66,1145.38)"><path d="M0.088,-0.55l0.085,0l0,0.095l0.008,0c0.009,-0.033 0.026,-0.059 0.053,-0.077c0.027,-0.019 0.06,-0.028 0.101,-0.028c0.028,0 0.053,0.005 0.076,0.015c0.023,0.01 0.042,0.024 0.058,0.043c0.016,0.018 0.029,0.04 0.037,0.067c0.009,0.027 0.014,0.057 0.014,0.09l0,0.14c0,0.033 -0.005,0.063 -0.014,0.09c-0.009,0.027 -0.021,0.049 -0.037,0.067c-0.016,0.019 -0.035,0.033 -0.058,0.043c-0.023,0.01 -0.048,0.015 -0.076,0.015c-0.041,-0 -0.074,-0.009 -0.101,-0.028c-0.027,-0.018 -0.044,-0.044 -0.053,-0.077l-0.008,-0c0.001,0.011 0.002,0.023 0.003,0.034c0.001,0.01 0.001,0.02 0.001,0.031c0.001,0.011 0.001,0.021 0.001,0.03l-0,0.17l-0.09,-0l-0,-0.72Zm0.09,0.205l-0,0.14c-0,0.042 0.011,0.075 0.033,0.1c0.023,0.025 0.053,0.037 0.09,0.037c0.04,-0 0.071,-0.012 0.094,-0.037c0.023,-0.025 0.035,-0.058 0.035,-0.1l-0,-0.14c-0,-0.043 -0.011,-0.077 -0.034,-0.101c-0.023,-0.024 -0.054,-0.036 -0.095,-0.036c-0.037,0 -0.067,0.012 -0.09,0.037c-0.022,0.025 -0.033,0.058 -0.033,0.1Z" style="fill-rule:nonzero;"/></g><g transform="matrix(41.6667,0,0,41.6667,1797.66,1145.38)"><path d="M0.197,-0.55l0,0.095l0.008,0c0.009,-0.033 0.027,-0.058 0.054,-0.077c0.027,-0.019 0.061,-0.028 0.101,-0.028c0.058,0 0.104,0.018 0.137,0.055c0.032,0.036 0.049,0.086 0.049,0.149l0,0.031l-0.09,-0l-0,-0.02c-0,-0.043 -0.011,-0.077 -0.033,-0.101c-0.021,-0.023 -0.052,-0.035 -0.092,-0.035c-0.039,0 -0.071,0.012 -0.094,0.036c-0.023,0.025 -0.035,0.058 -0.035,0.1l-0,0.345l-0.09,-0l-0,-0.55l0.085,0Z" style="fill-rule:nonzero;"/></g><g transform="matrix(41.6667,0,0,41.6667,1822.66,1145.38)"><path d="M0.08,-0.35c0,-0.065 0.02,-0.117 0.059,-0.154c0.038,-0.037 0.092,-0.056 0.161,-0.056c0.069,0 0.122,0.019 0.161,0.056c0.039,0.037 0.059,0.089 0.059,0.154l-0,0.101l-0.35,-0l-0,0.044c-0,0.042 0.011,0.075 0.034,0.099c0.023,0.024 0.055,0.036 0.096,0.036c0.03,-0 0.056,-0.005 0.078,-0.014c0.022,-0.009 0.038,-0.023 0.049,-0.041l0.09,-0c-0.011,0.042 -0.037,0.075 -0.076,0.099c-0.039,0.024 -0.086,0.036 -0.141,0.036c-0.069,-0 -0.123,-0.019 -0.162,-0.056c-0.039,-0.037 -0.058,-0.089 -0.058,-0.154l-0,-0.15Zm0.09,0.026l0.26,-0l-0,-0.026c-0,-0.041 -0.011,-0.073 -0.034,-0.096c-0.023,-0.023 -0.055,-0.034 -0.096,-0.034c-0.041,0 -0.073,0.011 -0.096,0.034c-0.023,0.023 -0.034,0.055 -0.034,0.096l-0,0.026Z" style="fill-rule:nonzero;"/></g><g transform="matrix(41.6667,0,0,41.6667,1847.66,1145.38)"><path d="M0.077,-0.135l0.095,0c0.004,0.019 0.016,0.035 0.037,0.047c0.021,0.012 0.046,0.018 0.076,0.018l0.028,0c0.036,0 0.064,-0.007 0.084,-0.022c0.02,-0.016 0.03,-0.036 0.03,-0.061c-0,-0.043 -0.031,-0.07 -0.092,-0.079l-0.083,-0.012c-0.054,-0.008 -0.094,-0.025 -0.121,-0.051c-0.027,-0.026 -0.04,-0.062 -0.04,-0.109c-0,-0.049 0.017,-0.088 0.052,-0.115c0.035,-0.027 0.084,-0.041 0.147,-0.041l0.028,0c0.027,0 0.051,0.003 0.074,0.01c0.023,0.007 0.043,0.016 0.06,0.029c0.017,0.012 0.031,0.027 0.042,0.044c0.011,0.017 0.019,0.035 0.022,0.056l-0.095,0c-0.004,-0.017 -0.015,-0.031 -0.034,-0.042c-0.019,-0.011 -0.042,-0.017 -0.069,-0.017l-0.028,0c-0.034,0 -0.06,0.007 -0.079,0.02c-0.019,0.013 -0.029,0.033 -0.029,0.06c0,0.021 0.007,0.038 0.02,0.049c0.013,0.011 0.034,0.018 0.063,0.022l0.083,0.012c0.059,0.009 0.103,0.026 0.13,0.052c0.026,0.026 0.04,0.063 0.04,0.111c0,0.051 -0.018,0.092 -0.053,0.121c-0.036,0.029 -0.087,0.043 -0.152,0.043l-0.028,0c-0.058,-0 -0.106,-0.013 -0.144,-0.039c-0.037,-0.027 -0.059,-0.062 -0.064,-0.106Z" style="fill-rule:nonzero;"/></g><g transform="matrix(41.6667,0,0,41.6667,1872.66,1145.38)"><path d="M0.077,-0.135l0.095,0c0.004,0.019 0.016,0.035 0.037,0.047c0.021,0.012 0.046,0.018 0.076,0.018l0.028,0c0.036,0 0.064,-0.007 0.084,-0.022c0.02,-0.016 0.03,-0.036 0.03,-0.061c-0,-0.043 -0.031,-0.07 -0.092,-0.079l-0.083,-0.012c-0.054,-0.008 -0.094,-0.025 -0.121,-0.051c-0.027,-0.026 -0.04,-0.062 -0.04,-0.109c-0,-0.049 0.017,-0.088 0.052,-0.115c0.035,-0.027 0.084,-0.041 0.147,-0.041l0.028,0c0.027,0 0.051,0.003 0.074,0.01c0.023,0.007 0.043,0.016 0.06,0.029c0.017,0.012 0.031,0.027 0.042,0.044c0.011,0.017 0.019,0.035 0.022,0.056l-0.095,0c-0.004,-0.017 -0.015,-0.031 -0.034,-0.042c-0.019,-0.011 -0.042,-0.017 -0.069,-0.017l-0.028,0c-0.034,0 -0.06,0.007 -0.079,0.02c-0.019,0.013 -0.029,0.033 -0.029,0.06c0,0.021 0.007,0.038 0.02,0.049c0.013,0.011 0.034,0.018 0.063,0.022l0.083,0.012c0.059,0.009 0.103,0.026 0.13,0.052c0.026,0.026 0.04,0.063 0.04,0.111c0,0.051 -0.018,0.092 -0.053,0.121c-0.036,0.029 -0.087,0.043 -0.152,0.043l-0.028,0c-0.058,-0 -0.106,-0.013 -0.144,-0.039c-0.037,-0.027 -0.059,-0.062 -0.064,-0.106Z" style="fill-rule:nonzero;"/></g></g><circle id="SQL" cx="295.823" cy="26.731" r="21.231" style="fill:none;stroke:#000;stroke-width:2.08px;stroke-linecap:round;stroke-miterlimit:1.5;"/><path d="M283.352,28.192l1.423,-0c0,0.519 0.188,0.936 0.562,1.251c0.375,0.314 0.871,0.471 1.491,0.471c0.639,0 1.138,-0.147 1.498,-0.442c0.359,-0.294 0.539,-0.696 0.539,-1.205c-0,-0.44 -0.13,-0.827 -0.39,-1.161c-0.259,-0.335 -0.614,-0.582 -1.063,-0.742l-1.273,-0.449c-1.638,-0.589 -2.457,-1.603 -2.457,-3.041c-0,-0.879 0.285,-1.573 0.854,-2.082c0.569,-0.51 1.348,-0.764 2.337,-0.764c0.479,-0 0.916,0.067 1.31,0.202c0.395,0.135 0.734,0.327 1.019,0.577c0.285,0.249 0.504,0.551 0.659,0.906c0.155,0.354 0.237,0.746 0.247,1.176l-1.423,-0c0,-0.509 -0.167,-0.914 -0.502,-1.213c-0.334,-0.3 -0.776,-0.45 -1.325,-0.45c-0.56,0 -1.004,0.137 -1.334,0.412c-0.329,0.275 -0.494,0.647 -0.494,1.116c0,0.439 0.12,0.804 0.36,1.094c0.239,0.289 0.629,0.534 1.168,0.734l1.333,0.479c0.759,0.27 1.341,0.677 1.745,1.221c0.405,0.544 0.607,1.191 0.607,1.94c0,0.898 -0.307,1.605 -0.921,2.119c-0.614,0.515 -1.456,0.772 -2.524,0.772c-0.51,-0 -0.974,-0.07 -1.393,-0.21c-0.42,-0.14 -0.779,-0.337 -1.079,-0.592c-0.3,-0.254 -0.534,-0.561 -0.704,-0.921c-0.17,-0.359 -0.26,-0.759 -0.27,-1.198Z" style="fill-rule:nonzero;"/><path d="M292.49,27.892l0,-4.644c0,-0.489 0.077,-0.933 0.232,-1.333c0.155,-0.399 0.375,-0.739 0.659,-1.018c0.285,-0.28 0.629,-0.495 1.034,-0.645c0.404,-0.149 0.861,-0.224 1.371,-0.224c0.509,-0 0.966,0.075 1.37,0.224c0.405,0.15 0.749,0.365 1.034,0.645c0.284,0.279 0.504,0.619 0.659,1.018c0.155,0.4 0.232,0.844 0.232,1.333l0,4.644c0,0.679 -0.145,1.266 -0.434,1.76c-0.29,0.495 -0.699,0.867 -1.229,1.116l1.753,2.667l-1.558,-0l-1.543,-2.337c-0.03,0.01 -0.07,0.015 -0.12,0.015c-0.05,-0 -0.105,-0 -0.164,-0c-0.51,-0 -0.967,-0.075 -1.371,-0.225c-0.405,-0.15 -0.749,-0.364 -1.034,-0.644c-0.284,-0.28 -0.504,-0.619 -0.659,-1.019c-0.155,-0.399 -0.232,-0.844 -0.232,-1.333Zm3.296,2.022c0.599,0 1.073,-0.182 1.423,-0.546c0.349,-0.365 0.524,-0.857 0.524,-1.476l-0,-4.644c-0,-0.619 -0.175,-1.111 -0.524,-1.475c-0.35,-0.365 -0.824,-0.547 -1.423,-0.547c-0.6,0 -1.074,0.182 -1.424,0.547c-0.349,0.364 -0.524,0.856 -0.524,1.475l0,4.644c0,0.619 0.175,1.111 0.524,1.476c0.35,0.364 0.824,0.546 1.424,0.546Z" style="fill-rule:nonzero;"/><path d="M303.201,20.178l-0,9.557l5.093,-0l-0,1.228l-6.442,-0l0,-10.785l1.349,-0Z" style="fill-rule:nonzero;"/><path d="M218.613,125.499c-17.834,-8.563 -30.157,-26.794 -30.157,-47.88c0,-29.294 23.784,-53.078 53.078,-53.078c21.667,0 40.318,13.01 48.551,31.644c-9.974,9.644 -16.17,23.16 -16.17,38.112c0,7.628 1.613,14.883 4.528,21.434c-1.962,1.905 -4.072,3.659 -6.31,5.244c-5.882,-1.012 -11.929,-1.539 -18.099,-1.539c-12.421,-0 -24.346,2.138 -35.421,6.063Z" style="fill:none;stroke:#000;stroke-width:2.08px;stroke-linecap:round;stroke-miterlimit:1.5;"/><path id="Express.js" d="M282.555,123.318c-5.462,-8.343 -8.64,-18.314 -8.64,-29.021c0,-29.295 23.784,-53.078 53.078,-53.078c29.295,-0 53.078,23.783 53.078,53.078c0,29.294 -23.783,53.078 -53.078,53.078c-0.413,-0 -0.825,-0.005 -1.232,-0.015c-12.143,-11.14 -26.883,-19.494 -43.206,-24.042Z" style="fill:none;stroke:#000;stroke-width:2.08px;stroke-linecap:round;stroke-miterlimit:1.5;"/><path d="M211.039,226.535c0.09,0.48 0.32,0.862 0.689,1.146c0.37,0.285 0.814,0.427 1.333,0.427c0.64,0 1.149,-0.182 1.528,-0.546c0.38,-0.365 0.57,-0.857 0.57,-1.476l-0,-6.516l-4.195,-0l0,-1.199l5.543,0l-0,7.715c-0,0.489 -0.08,0.934 -0.24,1.333c-0.16,0.4 -0.389,0.739 -0.689,1.019c-0.3,0.28 -0.662,0.494 -1.086,0.644c-0.424,0.15 -0.901,0.225 -1.431,0.225c-0.439,-0 -0.848,-0.065 -1.228,-0.195c-0.379,-0.13 -0.716,-0.317 -1.011,-0.562c-0.295,-0.244 -0.539,-0.537 -0.734,-0.876c-0.195,-0.34 -0.327,-0.719 -0.397,-1.139l1.348,0Z" style="fill-rule:nonzero;"/><path d="M218.949,226.76c-0,-0.389 0.067,-0.741 0.202,-1.056c0.135,-0.315 0.329,-0.582 0.584,-0.801c0.255,-0.22 0.562,-0.39 0.921,-0.51c0.36,-0.119 0.764,-0.179 1.214,-0.179l2.456,-0l0,-0.675c0,-0.509 -0.167,-0.906 -0.502,-1.19c-0.334,-0.285 -0.816,-0.427 -1.445,-0.427c-0.46,-0 -0.851,0.085 -1.176,0.254c-0.325,0.17 -0.542,0.405 -0.652,0.704l-1.348,0c0.14,-0.649 0.497,-1.163 1.071,-1.543c0.574,-0.379 1.286,-0.569 2.135,-0.569c1.018,0 1.817,0.237 2.397,0.712c0.579,0.474 0.868,1.136 0.868,1.985l0,5.692l-1.228,-0l0,-1.573l-0.12,0c-0.13,0.529 -0.434,0.949 -0.914,1.258c-0.479,0.31 -1.063,0.465 -1.752,0.465c-0.829,-0 -1.488,-0.23 -1.977,-0.689c-0.49,-0.46 -0.734,-1.079 -0.734,-1.858Zm1.348,-0.03c-0,0.46 0.144,0.819 0.434,1.079c0.29,0.259 0.699,0.389 1.228,0.389c0.34,0 0.655,-0.045 0.944,-0.135c0.29,-0.089 0.539,-0.217 0.749,-0.382c0.21,-0.164 0.375,-0.357 0.494,-0.576c0.12,-0.22 0.18,-0.46 0.18,-0.719l0,-1.124l-2.426,0c-0.5,0 -0.892,0.13 -1.176,0.39c-0.285,0.259 -0.427,0.619 -0.427,1.078Z" style="fill-rule:nonzero;"/><path d="M227.742,220.918l1.423,0l2.007,5.827c0.08,0.23 0.14,0.432 0.18,0.607c0.04,0.175 0.07,0.322 0.09,0.442c0.02,0.15 0.03,0.279 0.03,0.389l0.134,0c-0.01,-0.11 -0.005,-0.239 0.015,-0.389c0.02,-0.12 0.045,-0.267 0.075,-0.442c0.03,-0.175 0.085,-0.377 0.165,-0.607l1.903,-5.827l1.468,0l-2.951,8.239l-1.528,-0l-3.011,-8.239Z" style="fill-rule:nonzero;"/><path d="M236.924,226.76c0,-0.389 0.068,-0.741 0.202,-1.056c0.135,-0.315 0.33,-0.582 0.585,-0.801c0.254,-0.22 0.561,-0.39 0.921,-0.51c0.359,-0.119 0.764,-0.179 1.213,-0.179l2.457,-0l-0,-0.675c-0,-0.509 -0.167,-0.906 -0.502,-1.19c-0.334,-0.285 -0.816,-0.427 -1.445,-0.427c-0.46,-0 -0.852,0.085 -1.176,0.254c-0.325,0.17 -0.542,0.405 -0.652,0.704l-1.348,0c0.14,-0.649 0.497,-1.163 1.071,-1.543c0.574,-0.379 1.286,-0.569 2.135,-0.569c1.018,0 1.817,0.237 2.396,0.712c0.58,0.474 0.869,1.136 0.869,1.985l0,5.692l-1.228,-0l-0,-1.573l-0.12,0c-0.13,0.529 -0.434,0.949 -0.914,1.258c-0.479,0.31 -1.063,0.465 -1.752,0.465c-0.829,-0 -1.488,-0.23 -1.978,-0.689c-0.489,-0.46 -0.734,-1.079 -0.734,-1.858Zm1.348,-0.03c0,0.46 0.145,0.819 0.435,1.079c0.289,0.259 0.699,0.389 1.228,0.389c0.34,0 0.654,-0.045 0.944,-0.135c0.29,-0.089 0.539,-0.217 0.749,-0.382c0.21,-0.164 0.374,-0.357 0.494,-0.576c0.12,-0.22 0.18,-0.46 0.18,-0.719l-0,-1.124l-2.427,0c-0.499,0 -0.891,0.13 -1.176,0.39c-0.284,0.259 -0.427,0.619 -0.427,1.078Z" style="fill-rule:nonzero;"/><path d="M246.017,226.386l1.423,-0c0,0.519 0.187,0.936 0.562,1.25c0.374,0.315 0.871,0.472 1.49,0.472c0.639,0 1.139,-0.147 1.498,-0.442c0.36,-0.294 0.54,-0.696 0.54,-1.205c-0,-0.44 -0.13,-0.827 -0.39,-1.161c-0.26,-0.335 -0.614,-0.582 -1.063,-0.742l-1.274,-0.449c-1.638,-0.589 -2.456,-1.603 -2.456,-3.041c-0,-0.879 0.284,-1.573 0.853,-2.082c0.57,-0.51 1.349,-0.764 2.337,-0.764c0.48,-0 0.916,0.067 1.311,0.202c0.394,0.135 0.734,0.327 1.019,0.577c0.284,0.249 0.504,0.551 0.659,0.906c0.154,0.354 0.237,0.746 0.247,1.176l-1.423,-0c-0,-0.51 -0.167,-0.914 -0.502,-1.214c-0.335,-0.299 -0.776,-0.449 -1.326,-0.449c-0.559,0 -1.003,0.137 -1.333,0.412c-0.33,0.275 -0.494,0.647 -0.494,1.116c-0,0.439 0.12,0.804 0.359,1.094c0.24,0.289 0.629,0.534 1.169,0.734l1.333,0.479c0.759,0.27 1.341,0.676 1.745,1.221c0.404,0.544 0.607,1.191 0.607,1.94c-0,0.898 -0.307,1.605 -0.922,2.119c-0.614,0.515 -1.455,0.772 -2.524,0.772c-0.509,-0 -0.973,-0.07 -1.393,-0.21c-0.419,-0.14 -0.779,-0.337 -1.078,-0.592c-0.3,-0.254 -0.535,-0.561 -0.704,-0.921c-0.17,-0.359 -0.26,-0.759 -0.27,-1.198Z" style="fill-rule:nonzero;"/><path d="M258.57,229.307c-0.509,-0 -0.966,-0.075 -1.371,-0.225c-0.404,-0.15 -0.749,-0.364 -1.033,-0.644c-0.285,-0.28 -0.505,-0.619 -0.659,-1.019c-0.155,-0.399 -0.233,-0.844 -0.233,-1.333l0,-2.097c0,-0.489 0.078,-0.934 0.233,-1.333c0.154,-0.4 0.374,-0.739 0.659,-1.019c0.284,-0.28 0.629,-0.494 1.033,-0.644c0.405,-0.15 0.862,-0.225 1.371,-0.225c0.909,0 1.655,0.247 2.24,0.742c0.584,0.494 0.936,1.171 1.056,2.029l-1.349,0c-0.069,-0.479 -0.282,-0.861 -0.636,-1.145c-0.355,-0.285 -0.792,-0.427 -1.311,-0.427c-0.599,-0 -1.074,0.179 -1.423,0.539c-0.35,0.359 -0.524,0.854 -0.524,1.483l-0,2.097c-0,0.629 0.172,1.124 0.516,1.483c0.345,0.36 0.822,0.539 1.431,0.539c0.519,0 0.956,-0.142 1.311,-0.427c0.354,-0.284 0.567,-0.666 0.636,-1.146l1.349,0c-0.13,0.869 -0.487,1.548 -1.071,2.038c-0.585,0.489 -1.326,0.734 -2.225,0.734Z" style="fill-rule:nonzero;"/><path d="M265.895,220.918l0,1.423l0.12,0c0.13,-0.489 0.399,-0.874 0.809,-1.153c0.409,-0.28 0.914,-0.42 1.513,-0.42c0.869,0 1.55,0.272 2.045,0.817c0.494,0.544 0.741,1.29 0.741,2.239l0,0.464l-1.348,0l-0,-0.299c-0,-0.649 -0.162,-1.151 -0.487,-1.506c-0.324,-0.354 -0.786,-0.531 -1.386,-0.531c-0.589,-0 -1.058,0.182 -1.408,0.546c-0.349,0.365 -0.524,0.862 -0.524,1.491l0,5.168l-1.348,-0l-0,-8.239l1.273,0Z" style="fill-rule:nonzero;"/><path d="M273.355,229.157l0,-1.228l2.996,-0l0,-5.783l-2.621,0l-0,-1.228l3.969,0l0,7.011l2.472,-0l-0,1.228l-6.816,-0Zm3.296,-11.46l0.299,0c0.29,0 0.525,0.085 0.704,0.255c0.18,0.17 0.27,0.39 0.27,0.659c-0,0.27 -0.09,0.484 -0.27,0.644c-0.179,0.16 -0.414,0.24 -0.704,0.24l-0.299,-0c-0.29,-0 -0.525,-0.077 -0.704,-0.232c-0.18,-0.155 -0.27,-0.372 -0.27,-0.652c-0,-0.269 0.09,-0.489 0.27,-0.659c0.179,-0.17 0.414,-0.255 0.704,-0.255Z" style="fill-rule:nonzero;"/><path d="M282.238,220.918l1.273,0l0,1.423l0.12,0c0.13,-0.499 0.395,-0.886 0.794,-1.161c0.4,-0.274 0.904,-0.412 1.513,-0.412c0.42,0 0.799,0.075 1.139,0.225c0.339,0.15 0.629,0.362 0.868,0.637c0.24,0.274 0.427,0.611 0.562,1.011c0.135,0.399 0.202,0.849 0.202,1.348l0,2.097c0,0.499 -0.067,0.949 -0.202,1.348c-0.135,0.4 -0.322,0.737 -0.562,1.011c-0.239,0.275 -0.529,0.487 -0.868,0.637c-0.34,0.15 -0.719,0.225 -1.139,0.225c-0.609,-0 -1.113,-0.138 -1.513,-0.412c-0.399,-0.275 -0.664,-0.662 -0.794,-1.161l-0.12,-0c0.01,0.17 0.025,0.339 0.045,0.509c0.01,0.15 0.018,0.305 0.023,0.465c0.005,0.159 0.007,0.309 0.007,0.449l0,2.546l-1.348,0l0,-10.785Zm1.348,3.071l0,2.097c0,0.629 0.168,1.129 0.502,1.498c0.335,0.37 0.782,0.554 1.341,0.554c0.599,0 1.071,-0.184 1.415,-0.554c0.345,-0.369 0.517,-0.869 0.517,-1.498l0,-2.097c0,-0.649 -0.17,-1.154 -0.509,-1.513c-0.34,-0.36 -0.814,-0.539 -1.423,-0.539c-0.559,-0 -1.006,0.184 -1.341,0.554c-0.334,0.369 -0.502,0.869 -0.502,1.498Z" style="fill-rule:nonzero;"/><path d="M290.807,220.918l2.396,0l0,-2.547l1.348,0l0,2.547l3.221,0l0,1.228l-3.221,0l0,4.884c0,0.279 0.088,0.499 0.263,0.659c0.174,0.16 0.412,0.24 0.711,0.24l2.097,-0l0,1.228l-2.097,-0c-0.709,-0 -1.273,-0.195 -1.693,-0.584c-0.419,-0.39 -0.629,-0.904 -0.629,-1.543l0,-4.884l-2.396,0l-0,-1.228Z" style="fill-rule:nonzero;"/><path id="JavaScript" d="M222.23,326.893c-37.644,-11.822 -66.28,-44.065 -72.899,-83.718c8.712,-14.436 10.303,-32.636 3.213,-48.779c13.341,-43.388 53.758,-74.96 101.49,-74.96c58.589,-0 106.156,47.567 106.156,106.156c0,21.104 -6.171,40.777 -16.808,57.315c-12.321,-6.962 -26.544,-10.935 -41.689,-10.935c-36.311,0 -67.33,22.838 -79.463,54.921Z" style="fill:none;stroke:#000;stroke-width:2.08px;stroke-linecap:round;stroke-miterlimit:1.5;"/><g transform="matrix(0.359515,0,0,0.359515,-349.199,-49.5657)"><g transform="matrix(41.6667,0,0,41.6667,1772.66,1145.38)"><path d="M0.044,-0.72l0.096,0l0.138,0.563c0.003,0.014 0.006,0.027 0.009,0.038c0.003,0.012 0.005,0.022 0.006,0.031c0.001,0.011 0.003,0.02 0.004,0.028l0.004,-0c0.001,-0.008 0.003,-0.017 0.005,-0.028c0.001,-0.009 0.003,-0.019 0.006,-0.031c0.003,-0.011 0.006,-0.024 0.009,-0.038l0.141,-0.563l0.094,0l-0.196,0.72l-0.126,-0l-0.19,-0.72Z" style="fill-rule:nonzero;"/></g><g transform="matrix(41.6667,0,0,41.6667,1797.66,1145.38)"><path d="M0.18,-0.55l0,0.356c0,0.083 0.04,0.125 0.119,0.125c0.081,0 0.121,-0.042 0.121,-0.125l0,-0.356l0.09,0l0,0.356c0,0.065 -0.018,0.116 -0.054,0.151c-0.037,0.035 -0.089,0.053 -0.157,0.053c-0.067,-0 -0.118,-0.018 -0.155,-0.053c-0.036,-0.036 -0.054,-0.086 -0.054,-0.151l-0,-0.356l0.09,0Z" style="fill-rule:nonzero;"/></g><g transform="matrix(41.6667,0,0,41.6667,1822.66,1145.38)"><path d="M0.08,-0.35c0,-0.065 0.02,-0.117 0.059,-0.154c0.038,-0.037 0.092,-0.056 0.161,-0.056c0.069,0 0.122,0.019 0.161,0.056c0.039,0.037 0.059,0.089 0.059,0.154l-0,0.101l-0.35,-0l-0,0.044c-0,0.042 0.011,0.075 0.034,0.099c0.023,0.024 0.055,0.036 0.096,0.036c0.03,-0 0.056,-0.005 0.078,-0.014c0.022,-0.009 0.038,-0.023 0.049,-0.041l0.09,-0c-0.011,0.042 -0.037,0.075 -0.076,0.099c-0.039,0.024 -0.086,0.036 -0.141,0.036c-0.069,-0 -0.123,-0.019 -0.162,-0.056c-0.039,-0.037 -0.058,-0.089 -0.058,-0.154l-0,-0.15Zm0.09,0.026l0.26,-0l-0,-0.026c-0,-0.041 -0.011,-0.073 -0.034,-0.096c-0.023,-0.023 -0.055,-0.034 -0.096,-0.034c-0.041,0 -0.073,0.011 -0.096,0.034c-0.023,0.023 -0.034,0.055 -0.034,0.096l-0,0.026Z" style="fill-rule:nonzero;"/></g></g><path id="React" d="M355.359,422.699c-5.388,4.4 -11.323,8.152 -17.688,11.136c-7.801,-19.612 -26.963,-33.491 -49.341,-33.491c-17.161,0 -32.431,8.162 -42.137,20.813c-18.018,-15.579 -29.424,-38.598 -29.424,-64.26c-0,-46.871 38.053,-84.925 84.924,-84.925c46.872,0 84.925,38.054 84.925,84.925c0,3.871 -0.259,7.682 -0.762,11.418c-18.207,8.415 -30.854,26.846 -30.854,48.208c0,2.088 0.121,4.149 0.357,6.176Z" style="fill:none;stroke:#000;stroke-width:2.08px;stroke-linecap:round;stroke-miterlimit:1.5;"/><circle id="Redux" cx="408.08" cy="416.523" r="53.078" style="fill:none;stroke:#000;stroke-width:2.08px;stroke-linecap:round;stroke-miterlimit:1.5;"/><path d="M390.449,411.055l1.438,-0l2.067,8.434c0.05,0.209 0.095,0.401 0.135,0.576c0.04,0.175 0.07,0.327 0.09,0.457c0.02,0.16 0.04,0.3 0.06,0.42l0.06,-0c0.02,-0.12 0.045,-0.26 0.075,-0.42c0.02,-0.13 0.05,-0.282 0.09,-0.457c0.04,-0.175 0.084,-0.367 0.134,-0.576l2.113,-8.434l1.408,-0l-2.936,10.785l-1.888,0l-2.846,-10.785Z" style="fill-rule:nonzero;"/><path d="M401.474,413.601l0,5.333c0,1.249 0.594,1.873 1.783,1.873c1.208,-0 1.812,-0.624 1.812,-1.873l0,-5.333l1.348,0l0,5.333c0,0.979 -0.272,1.733 -0.816,2.262c-0.544,0.53 -1.326,0.794 -2.344,0.794c-0.999,0 -1.77,-0.267 -2.315,-0.801c-0.544,-0.535 -0.816,-1.286 -0.816,-2.255l-0,-5.333l1.348,0Z" style="fill-rule:nonzero;"/><path d="M408.964,416.597c0,-0.978 0.292,-1.747 0.876,-2.306c0.585,-0.56 1.391,-0.839 2.42,-0.839c1.028,-0 1.835,0.279 2.419,0.839c0.584,0.559 0.876,1.328 0.876,2.306l0,1.513l-5.243,0l0,0.659c0,0.63 0.172,1.124 0.517,1.483c0.345,0.36 0.821,0.54 1.431,0.54c0.449,-0 0.838,-0.07 1.168,-0.21c0.33,-0.14 0.574,-0.344 0.734,-0.614l1.348,-0c-0.17,0.629 -0.547,1.123 -1.131,1.483c-0.584,0.359 -1.291,0.539 -2.119,0.539c-1.029,0 -1.835,-0.279 -2.42,-0.839c-0.584,-0.559 -0.876,-1.328 -0.876,-2.307l0,-2.247Zm1.348,0.39l3.895,-0l-0,-0.39c-0,-0.619 -0.17,-1.098 -0.509,-1.438c-0.34,-0.339 -0.819,-0.509 -1.438,-0.509c-0.62,0 -1.099,0.17 -1.438,0.509c-0.34,0.34 -0.51,0.819 -0.51,1.438l0,0.39Z" style="fill-rule:nonzero;"/><path d="M417.473,421.84l2.981,-4.224l-2.802,-4.015l1.618,0l1.723,2.622c0.05,0.07 0.09,0.137 0.12,0.202c0.03,0.065 0.055,0.122 0.075,0.172c0.02,0.05 0.035,0.1 0.044,0.15l0.06,0c0.01,-0.05 0.025,-0.1 0.045,-0.15c0.02,-0.05 0.045,-0.107 0.075,-0.172c0.03,-0.065 0.07,-0.132 0.12,-0.202l1.723,-2.622l1.603,0l-2.802,4l2.966,4.239l-1.617,0l-1.843,-2.786c-0.04,-0.07 -0.077,-0.137 -0.112,-0.202c-0.035,-0.065 -0.068,-0.127 -0.098,-0.187c-0.03,-0.07 -0.055,-0.135 -0.075,-0.195l-0.059,-0c-0.02,0.07 -0.045,0.135 -0.075,0.195c-0.03,0.06 -0.06,0.124 -0.09,0.194c-0.03,0.07 -0.07,0.135 -0.12,0.195l-1.858,2.786l-1.602,0Z" style="fill-rule:nonzero;"/><circle id="Hooks" cx="288.33" cy="453.422" r="53.078" style="fill:none;stroke:#000;stroke-width:2.08px;stroke-linecap:round;stroke-miterlimit:1.5;"/><path d="M243.989,447.954l1.438,0l2.068,8.434c0.05,0.21 0.095,0.402 0.134,0.577c0.04,0.174 0.07,0.327 0.09,0.457c0.02,0.159 0.04,0.299 0.06,0.419l0.06,0c0.02,-0.12 0.045,-0.26 0.075,-0.419c0.02,-0.13 0.05,-0.283 0.09,-0.457c0.04,-0.175 0.085,-0.367 0.135,-0.577l2.112,-8.434l1.408,0l-2.936,10.786l-1.887,-0l-2.847,-10.786Z" style="fill-rule:nonzero;"/><path d="M255.015,450.501l-0,5.333c-0,1.248 0.594,1.872 1.782,1.872c1.208,0 1.813,-0.624 1.813,-1.872l-0,-5.333l1.348,-0l-0,5.333c-0,0.978 -0.272,1.732 -0.817,2.262c-0.544,0.529 -1.325,0.794 -2.344,0.794c-0.999,-0 -1.77,-0.268 -2.314,-0.802c-0.545,-0.534 -0.817,-1.286 -0.817,-2.254l0,-5.333l1.349,-0Z" style="fill-rule:nonzero;"/><path d="M262.504,453.497c0,-0.979 0.293,-1.748 0.877,-2.307c0.584,-0.559 1.39,-0.839 2.419,-0.839c1.029,0 1.835,0.28 2.419,0.839c0.584,0.559 0.877,1.328 0.877,2.307l-0,1.513l-5.243,-0l-0,0.659c-0,0.629 0.172,1.123 0.516,1.483c0.345,0.359 0.822,0.539 1.431,0.539c0.449,0 0.839,-0.07 1.168,-0.209c0.33,-0.14 0.575,-0.345 0.734,-0.615l1.349,0c-0.17,0.63 -0.547,1.124 -1.131,1.483c-0.585,0.36 -1.291,0.54 -2.12,0.54c-1.029,-0 -1.835,-0.28 -2.419,-0.839c-0.584,-0.559 -0.877,-1.328 -0.877,-2.307l0,-2.247Zm1.349,0.389l3.894,0l0,-0.389c0,-0.619 -0.169,-1.099 -0.509,-1.438c-0.34,-0.34 -0.819,-0.509 -1.438,-0.509c-0.619,-0 -1.099,0.169 -1.438,0.509c-0.34,0.339 -0.509,0.819 -0.509,1.438l-0,0.389Z" style="fill-rule:nonzero;"/><path d="M280.63,447.954l3.445,0c0.49,0 0.934,0.075 1.334,0.225c0.399,0.15 0.741,0.365 1.026,0.644c0.284,0.28 0.504,0.612 0.659,0.996c0.155,0.385 0.232,0.812 0.232,1.281c-0,0.749 -0.192,1.386 -0.577,1.91c-0.384,0.524 -0.906,0.886 -1.565,1.086l2.292,4.644l-1.588,-0l-2.097,-4.494l-1.813,-0l0,4.494l-1.348,-0l-0,-10.786Zm1.348,5.094l2.097,-0c0.57,-0 1.021,-0.178 1.356,-0.532c0.335,-0.355 0.502,-0.827 0.502,-1.416c-0,-0.589 -0.17,-1.061 -0.51,-1.415c-0.339,-0.355 -0.788,-0.532 -1.348,-0.532l-2.097,-0l0,3.895Z" style="fill-rule:nonzero;"/><path d="M292.764,458.89c-0.51,-0 -0.967,-0.075 -1.371,-0.225c-0.405,-0.15 -0.749,-0.365 -1.034,-0.644c-0.284,-0.28 -0.504,-0.619 -0.659,-1.019c-0.155,-0.399 -0.232,-0.844 -0.232,-1.333l0,-2.097c0,-0.5 0.077,-0.946 0.232,-1.341c0.155,-0.394 0.375,-0.731 0.659,-1.011c0.285,-0.28 0.629,-0.494 1.034,-0.644c0.404,-0.15 0.861,-0.225 1.371,-0.225c1.018,0 1.822,0.285 2.411,0.854c0.59,0.569 0.884,1.353 0.884,2.352l0,2.112c0,0.999 -0.292,1.785 -0.876,2.359c-0.584,0.575 -1.391,0.862 -2.419,0.862Zm-1.948,-3.221c0,0.629 0.172,1.123 0.517,1.483c0.345,0.359 0.821,0.539 1.431,0.539c0.599,0 1.073,-0.18 1.423,-0.539c0.349,-0.36 0.524,-0.854 0.524,-1.483l-0,-2.097c-0,-0.629 -0.175,-1.124 -0.524,-1.483c-0.35,-0.36 -0.824,-0.539 -1.423,-0.539c-0.6,-0 -1.074,0.179 -1.423,0.539c-0.35,0.359 -0.525,0.854 -0.525,1.483l0,2.097Z" style="fill-rule:nonzero;"/><path d="M299.954,450.501l-0,5.333c-0,1.248 0.594,1.872 1.782,1.872c1.209,0 1.813,-0.624 1.813,-1.872l0,-5.333l1.348,-0l0,5.333c0,0.978 -0.272,1.732 -0.816,2.262c-0.544,0.529 -1.326,0.794 -2.345,0.794c-0.998,-0 -1.77,-0.268 -2.314,-0.802c-0.544,-0.534 -0.816,-1.286 -0.816,-2.254l-0,-5.333l1.348,-0Z" style="fill-rule:nonzero;"/><path d="M307.144,450.501l2.397,-0l-0,-2.547l1.348,0l0,2.547l3.221,-0l-0,1.228l-3.221,0l0,4.884c0,0.279 0.088,0.499 0.262,0.659c0.175,0.16 0.412,0.239 0.712,0.239l2.097,0l-0,1.229l-2.097,-0c-0.709,-0 -1.273,-0.195 -1.693,-0.584c-0.419,-0.39 -0.629,-0.904 -0.629,-1.543l-0,-4.884l-2.397,0l0,-1.228Z" style="fill-rule:nonzero;"/><path d="M316.432,453.497c-0,-0.979 0.292,-1.748 0.876,-2.307c0.584,-0.559 1.391,-0.839 2.419,-0.839c1.029,0 1.835,0.28 2.419,0.839c0.585,0.559 0.877,1.328 0.877,2.307l-0,1.513l-5.243,-0l-0,0.659c-0,0.629 0.172,1.123 0.517,1.483c0.344,0.359 0.821,0.539 1.43,0.539c0.45,0 0.839,-0.07 1.169,-0.209c0.329,-0.14 0.574,-0.345 0.734,-0.615l1.348,0c-0.17,0.63 -0.547,1.124 -1.131,1.483c-0.584,0.36 -1.291,0.54 -2.12,0.54c-1.028,-0 -1.835,-0.28 -2.419,-0.839c-0.584,-0.559 -0.876,-1.328 -0.876,-2.307l-0,-2.247Zm1.348,0.389l3.895,0l-0,-0.389c-0,-0.619 -0.17,-1.099 -0.51,-1.438c-0.339,-0.34 -0.819,-0.509 -1.438,-0.509c-0.619,-0 -1.098,0.169 -1.438,0.509c-0.339,0.339 -0.509,0.819 -0.509,1.438l-0,0.389Z" style="fill-rule:nonzero;"/><path d="M327.172,450.501l0,1.423l0.12,0c0.13,-0.489 0.399,-0.874 0.809,-1.153c0.409,-0.28 0.914,-0.42 1.513,-0.42c0.869,0 1.55,0.272 2.045,0.817c0.494,0.544 0.741,1.29 0.741,2.239l0,0.464l-1.348,0l-0,-0.299c-0,-0.649 -0.162,-1.151 -0.487,-1.506c-0.324,-0.354 -0.786,-0.531 -1.386,-0.531c-0.589,-0 -1.058,0.182 -1.408,0.546c-0.349,0.365 -0.524,0.862 -0.524,1.491l0,5.168l-1.348,-0l-0,-8.239l1.273,-0Z" style="fill-rule:nonzero;"/><g transform="matrix(0.359515,0,0,0.359515,-525.626,-86.4154)"><g transform="matrix(41.6667,0,0,41.6667,1760.16,1145.38)"><path d="M0.306,0.01c-0.034,-0 -0.065,-0.005 -0.092,-0.015c-0.026,-0.01 -0.049,-0.024 -0.069,-0.043c-0.018,-0.019 -0.033,-0.041 -0.043,-0.068c-0.011,-0.027 -0.016,-0.056 -0.016,-0.089l0,-0.31c0,-0.033 0.005,-0.062 0.016,-0.089c0.01,-0.027 0.025,-0.049 0.044,-0.068c0.019,-0.019 0.042,-0.033 0.069,-0.043c0.027,-0.01 0.057,-0.015 0.091,-0.015c0.063,0 0.113,0.017 0.152,0.051c0.038,0.035 0.061,0.083 0.068,0.144l-0.09,-0c-0.004,-0.036 -0.018,-0.064 -0.041,-0.085c-0.023,-0.02 -0.052,-0.03 -0.089,-0.03c-0.04,-0 -0.072,0.012 -0.095,0.036c-0.023,0.024 -0.035,0.057 -0.035,0.099l-0,0.31c-0,0.042 0.011,0.075 0.034,0.099c0.023,0.024 0.055,0.036 0.096,0.036c0.037,-0 0.066,-0.01 0.089,-0.031c0.023,-0.02 0.037,-0.048 0.041,-0.084l0.09,-0c-0.007,0.061 -0.03,0.109 -0.069,0.143c-0.038,0.035 -0.088,0.052 -0.151,0.052Z" style="fill-rule:nonzero;"/></g><g transform="matrix(41.6667,0,0,41.6667,1785.16,1145.38)"><path d="M0.07,-0.185l0.095,0c0,0.035 0.012,0.063 0.038,0.083c0.024,0.021 0.058,0.032 0.099,0.032c0.043,-0 0.076,-0.01 0.1,-0.03c0.024,-0.019 0.036,-0.046 0.036,-0.08c-0,-0.029 -0.009,-0.055 -0.026,-0.078c-0.017,-0.022 -0.041,-0.038 -0.071,-0.049l-0.085,-0.03c-0.109,-0.039 -0.164,-0.107 -0.164,-0.203c0,-0.059 0.019,-0.105 0.057,-0.139c0.038,-0.034 0.09,-0.051 0.156,-0.051c0.032,0 0.061,0.005 0.088,0.014c0.026,0.009 0.048,0.021 0.068,0.038c0.018,0.017 0.033,0.037 0.043,0.061c0.011,0.023 0.016,0.049 0.017,0.078l-0.095,0c-0,-0.034 -0.011,-0.061 -0.034,-0.081c-0.022,-0.02 -0.051,-0.03 -0.088,-0.03c-0.037,0 -0.067,0.009 -0.089,0.027c-0.022,0.019 -0.033,0.044 -0.033,0.075c-0,0.029 0.008,0.054 0.024,0.073c0.016,0.019 0.042,0.036 0.078,0.049l0.089,0.032c0.051,0.018 0.09,0.045 0.116,0.082c0.027,0.036 0.041,0.079 0.041,0.129c0,0.06 -0.021,0.107 -0.062,0.141c-0.041,0.035 -0.097,0.052 -0.168,0.052c-0.034,-0 -0.065,-0.005 -0.093,-0.014c-0.028,-0.009 -0.052,-0.023 -0.072,-0.04c-0.02,-0.017 -0.036,-0.037 -0.047,-0.061c-0.011,-0.024 -0.017,-0.051 -0.018,-0.08Z" style="fill-rule:nonzero;"/></g><g transform="matrix(41.6667,0,0,41.6667,1810.16,1145.38)"><path d="M0.07,-0.185l0.095,0c0,0.035 0.012,0.063 0.038,0.083c0.024,0.021 0.058,0.032 0.099,0.032c0.043,-0 0.076,-0.01 0.1,-0.03c0.024,-0.019 0.036,-0.046 0.036,-0.08c-0,-0.029 -0.009,-0.055 -0.026,-0.078c-0.017,-0.022 -0.041,-0.038 -0.071,-0.049l-0.085,-0.03c-0.109,-0.039 -0.164,-0.107 -0.164,-0.203c0,-0.059 0.019,-0.105 0.057,-0.139c0.038,-0.034 0.09,-0.051 0.156,-0.051c0.032,0 0.061,0.005 0.088,0.014c0.026,0.009 0.048,0.021 0.068,0.038c0.018,0.017 0.033,0.037 0.043,0.061c0.011,0.023 0.016,0.049 0.017,0.078l-0.095,0c-0,-0.034 -0.011,-0.061 -0.034,-0.081c-0.022,-0.02 -0.051,-0.03 -0.088,-0.03c-0.037,0 -0.067,0.009 -0.089,0.027c-0.022,0.019 -0.033,0.044 -0.033,0.075c-0,0.029 0.008,0.054 0.024,0.073c0.016,0.019 0.042,0.036 0.078,0.049l0.089,0.032c0.051,0.018 0.09,0.045 0.116,0.082c0.027,0.036 0.041,0.079 0.041,0.129c0,0.06 -0.021,0.107 -0.062,0.141c-0.041,0.035 -0.097,0.052 -0.168,0.052c-0.034,-0 -0.065,-0.005 -0.093,-0.014c-0.028,-0.009 -0.052,-0.023 -0.072,-0.04c-0.02,-0.017 -0.036,-0.037 -0.047,-0.061c-0.011,-0.024 -0.017,-0.051 -0.018,-0.08Z" style="fill-rule:nonzero;"/></g><g transform="matrix(41.6667,0,0,41.6667,1835.16,1145.38)"><path d="M0.294,0.01c-0.031,-0 -0.06,-0.005 -0.086,-0.014c-0.027,-0.009 -0.05,-0.023 -0.069,-0.039c-0.02,-0.018 -0.036,-0.038 -0.048,-0.062c-0.013,-0.024 -0.02,-0.051 -0.023,-0.08l0.09,0c0.005,0.035 0.02,0.063 0.045,0.083c0.025,0.021 0.055,0.032 0.091,0.032c0.042,-0 0.076,-0.013 0.101,-0.039c0.025,-0.025 0.038,-0.059 0.038,-0.101c0,-0.042 -0.013,-0.076 -0.039,-0.102c-0.026,-0.025 -0.061,-0.038 -0.104,-0.038l-0.084,0l0,-0.095l0.143,-0.145c0.007,-0.007 0.014,-0.013 0.021,-0.019c0.007,-0.006 0.014,-0.011 0.021,-0.016c0.007,-0.006 0.015,-0.012 0.023,-0.017l0,-0.002c-0.007,0.001 -0.015,0.001 -0.023,0.002c-0.007,0.001 -0.015,0.001 -0.023,0.002c-0.009,-0 -0.018,0 -0.027,0l-0.251,0l0,-0.08l0.4,0l0,0.1l-0.169,0.161c-0.004,0.004 -0.008,0.008 -0.012,0.011c-0.004,0.003 -0.008,0.006 -0.011,0.009c-0.003,0.003 -0.007,0.006 -0.01,0.009c0.036,-0 0.069,0.005 0.098,0.015c0.029,0.011 0.053,0.025 0.074,0.044c0.02,0.019 0.036,0.043 0.047,0.07c0.011,0.027 0.017,0.058 0.017,0.091c0,0.034 -0.005,0.064 -0.016,0.091c-0.011,0.027 -0.026,0.05 -0.046,0.069c-0.02,0.019 -0.044,0.034 -0.072,0.044c-0.029,0.011 -0.061,0.016 -0.096,0.016Z" style="fill-rule:nonzero;"/></g></g><path id="CSS3" d="M76.576,341.208c-2.845,-6.503 -4.425,-13.686 -4.425,-21.236c0,-29.294 23.784,-53.078 53.078,-53.078c29.295,0 53.078,23.784 53.078,53.078c0,28.281 -22.166,51.426 -50.06,52.994c0.596,-2.434 0.912,-4.978 0.912,-7.595c0,-17.576 -14.27,-31.847 -31.846,-31.847c-7.917,0 -15.163,2.895 -20.737,7.684Z" style="fill:none;stroke:#000;stroke-width:2.08px;stroke-linecap:round;stroke-miterlimit:1.5;"/><circle id="Sass" cx="97.313" cy="365.371" r="31.847" style="fill:none;stroke:#000;stroke-width:2.08px;stroke-linecap:round;stroke-miterlimit:1.5;"/><path d="M80.348,366.832l1.423,-0c0,0.519 0.187,0.936 0.562,1.251c0.374,0.314 0.871,0.471 1.49,0.471c0.639,0 1.139,-0.147 1.498,-0.441c0.36,-0.295 0.54,-0.697 0.54,-1.206c-0,-0.44 -0.13,-0.827 -0.39,-1.161c-0.26,-0.335 -0.614,-0.582 -1.064,-0.742l-1.273,-0.449c-1.638,-0.589 -2.456,-1.603 -2.456,-3.041c-0,-0.879 0.284,-1.573 0.853,-2.082c0.57,-0.51 1.349,-0.764 2.337,-0.764c0.48,-0 0.916,0.067 1.311,0.202c0.394,0.135 0.734,0.327 1.019,0.577c0.284,0.249 0.504,0.552 0.659,0.906c0.154,0.355 0.237,0.747 0.247,1.176l-1.423,-0c-0,-0.509 -0.167,-0.914 -0.502,-1.213c-0.335,-0.3 -0.776,-0.45 -1.326,-0.45c-0.559,0 -1.003,0.138 -1.333,0.412c-0.33,0.275 -0.494,0.647 -0.494,1.116c-0,0.44 0.12,0.804 0.359,1.094c0.24,0.289 0.629,0.534 1.169,0.734l1.333,0.479c0.759,0.27 1.341,0.677 1.745,1.221c0.404,0.544 0.607,1.191 0.607,1.94c-0,0.899 -0.307,1.605 -0.922,2.119c-0.614,0.515 -1.455,0.772 -2.524,0.772c-0.509,-0 -0.973,-0.07 -1.393,-0.21c-0.419,-0.14 -0.779,-0.337 -1.078,-0.592c-0.3,-0.254 -0.535,-0.561 -0.704,-0.921c-0.17,-0.359 -0.26,-0.759 -0.27,-1.198Z" style="fill-rule:nonzero;"/><path d="M89.231,367.206c-0,-0.389 0.067,-0.741 0.202,-1.056c0.135,-0.314 0.33,-0.581 0.584,-0.801c0.255,-0.22 0.562,-0.39 0.922,-0.51c0.359,-0.119 0.764,-0.179 1.213,-0.179l2.457,-0l-0,-0.674c-0,-0.51 -0.168,-0.907 -0.502,-1.191c-0.335,-0.285 -0.816,-0.427 -1.446,-0.427c-0.459,-0 -0.851,0.085 -1.176,0.254c-0.324,0.17 -0.541,0.405 -0.651,0.705l-1.348,-0c0.139,-0.65 0.496,-1.164 1.071,-1.543c0.574,-0.38 1.285,-0.57 2.134,-0.57c1.019,0 1.818,0.238 2.397,0.712c0.579,0.474 0.869,1.136 0.869,1.985l-0,5.692l-1.228,0l-0,-1.573l-0.12,0c-0.13,0.529 -0.435,0.949 -0.914,1.258c-0.479,0.31 -1.064,0.465 -1.753,0.465c-0.829,-0 -1.488,-0.23 -1.977,-0.689c-0.489,-0.46 -0.734,-1.079 -0.734,-1.858Zm1.348,-0.03c0,0.46 0.145,0.819 0.435,1.079c0.289,0.26 0.699,0.389 1.228,0.389c0.339,0 0.654,-0.045 0.944,-0.134c0.289,-0.09 0.539,-0.218 0.749,-0.382c0.209,-0.165 0.374,-0.357 0.494,-0.577c0.12,-0.22 0.18,-0.46 0.18,-0.719l-0,-1.124l-2.427,0c-0.499,0 -0.891,0.13 -1.176,0.39c-0.285,0.259 -0.427,0.619 -0.427,1.078Z" style="fill-rule:nonzero;"/><path d="M98.429,367.581l1.423,-0c0.06,0.289 0.244,0.524 0.554,0.704c0.309,0.18 0.689,0.269 1.138,0.269l0.42,0c0.539,0 0.959,-0.112 1.258,-0.337c0.3,-0.224 0.45,-0.526 0.45,-0.906c-0,-0.649 -0.46,-1.043 -1.379,-1.183l-1.243,-0.18c-0.809,-0.12 -1.413,-0.374 -1.813,-0.764c-0.399,-0.389 -0.599,-0.934 -0.599,-1.633c0,-0.739 0.262,-1.313 0.787,-1.722c0.524,-0.41 1.256,-0.615 2.194,-0.615l0.42,0c0.399,0 0.769,0.05 1.108,0.15c0.34,0.1 0.639,0.242 0.899,0.427c0.26,0.185 0.472,0.405 0.637,0.659c0.164,0.255 0.272,0.537 0.322,0.847l-1.423,-0c-0.06,-0.26 -0.23,-0.472 -0.51,-0.637c-0.279,-0.165 -0.624,-0.247 -1.033,-0.247l-0.42,-0c-0.509,-0 -0.906,0.1 -1.191,0.299c-0.284,0.2 -0.427,0.5 -0.427,0.899c0,0.32 0.098,0.562 0.293,0.727c0.194,0.164 0.511,0.277 0.951,0.337l1.243,0.179c0.889,0.13 1.536,0.39 1.94,0.779c0.404,0.39 0.607,0.944 0.607,1.663c-0,0.769 -0.267,1.371 -0.802,1.805c-0.534,0.435 -1.291,0.652 -2.269,0.652l-0.42,-0c-0.868,-0 -1.585,-0.197 -2.149,-0.592c-0.564,-0.394 -0.887,-0.921 -0.966,-1.58Z" style="fill-rule:nonzero;"/><path d="M107.416,367.581l1.424,-0c0.059,0.289 0.244,0.524 0.554,0.704c0.309,0.18 0.689,0.269 1.138,0.269l0.42,0c0.539,0 0.958,-0.112 1.258,-0.337c0.3,-0.224 0.449,-0.526 0.449,-0.906c0,-0.649 -0.459,-1.043 -1.378,-1.183l-1.243,-0.18c-0.809,-0.12 -1.413,-0.374 -1.813,-0.764c-0.399,-0.389 -0.599,-0.934 -0.599,-1.633c0,-0.739 0.262,-1.313 0.787,-1.722c0.524,-0.41 1.255,-0.615 2.194,-0.615l0.42,0c0.399,0 0.769,0.05 1.108,0.15c0.34,0.1 0.639,0.242 0.899,0.427c0.26,0.185 0.472,0.405 0.637,0.659c0.164,0.255 0.272,0.537 0.322,0.847l-1.423,-0c-0.06,-0.26 -0.23,-0.472 -0.51,-0.637c-0.279,-0.165 -0.624,-0.247 -1.033,-0.247l-0.42,-0c-0.509,-0 -0.906,0.1 -1.191,0.299c-0.284,0.2 -0.427,0.5 -0.427,0.899c0,0.32 0.098,0.562 0.292,0.727c0.195,0.164 0.512,0.277 0.952,0.337l1.243,0.179c0.889,0.13 1.535,0.39 1.94,0.779c0.404,0.39 0.607,0.944 0.607,1.663c-0,0.769 -0.268,1.371 -0.802,1.805c-0.534,0.435 -1.291,0.652 -2.269,0.652l-0.42,-0c-0.869,-0 -1.585,-0.197 -2.149,-0.592c-0.565,-0.394 -0.887,-0.921 -0.967,-1.58Z" style="fill-rule:nonzero;"/><circle id="HTML5" cx="103.921" cy="215.69" r="53.078" style="fill:none;stroke:#000;stroke-width:2.08px;stroke-linecap:round;stroke-miterlimit:1.5;"/><g transform="matrix(0.359515,0,0,0.359515,-546.972,-190.773)"><g transform="matrix(41.6667,0,0,41.6667,1747.66,1145.38)"><path d="M0.09,-0l0,-0.72l0.09,0l0,0.304l0.24,0l0,-0.304l0.09,0l0,0.72l-0.09,-0l-0,-0.334l-0.24,0l-0,0.334l-0.09,-0Z" style="fill-rule:nonzero;"/></g><g transform="matrix(41.6667,0,0,41.6667,1772.66,1145.38)"><path d="M0.045,-0.641l0,-0.079l0.51,0l0,0.079l-0.209,0l-0,0.641l-0.092,-0l-0,-0.641l-0.209,0Z" style="fill-rule:nonzero;"/></g><g transform="matrix(41.6667,0,0,41.6667,1797.66,1145.38)"><path d="M0.187,-0.72l0.086,0.244c0.003,0.01 0.007,0.021 0.009,0.032c0.003,0.011 0.006,0.022 0.009,0.031c0.003,0.011 0.005,0.022 0.007,0.033l0.008,-0c0.003,-0.011 0.005,-0.022 0.008,-0.033c0.003,-0.009 0.005,-0.02 0.008,-0.031c0.003,-0.011 0.007,-0.022 0.01,-0.032l0.081,-0.244l0.112,0l-0,0.72l-0.083,-0l-0,-0.505c-0,-0.017 0,-0.034 0.001,-0.051c0.001,-0.017 0.003,-0.032 0.004,-0.045c0.001,-0.015 0.002,-0.03 0.004,-0.043l-0.01,0c-0.003,0.013 -0.007,0.026 -0.011,0.041c-0.003,0.013 -0.008,0.028 -0.013,0.045c-0.005,0.016 -0.01,0.034 -0.017,0.053l-0.062,0.185l-0.074,0l-0.062,-0.185c-0.007,-0.021 -0.014,-0.041 -0.019,-0.058c-0.005,-0.017 -0.01,-0.032 -0.014,-0.044c-0.004,-0.015 -0.008,-0.027 -0.011,-0.038l-0.007,0c0.001,0.014 0.003,0.029 0.004,0.044c0.001,0.013 0.001,0.028 0.002,0.045c0.001,0.017 0.001,0.034 0.001,0.051l-0,0.505l-0.083,-0l-0,-0.72l0.112,0Z" style="fill-rule:nonzero;"/></g><g transform="matrix(41.6667,0,0,41.6667,1822.66,1145.38)"><path d="M0.195,-0.72l0,0.638l0.34,-0l0,0.082l-0.43,-0l-0,-0.72l0.09,0Z" style="fill-rule:nonzero;"/></g><g transform="matrix(41.6667,0,0,41.6667,1847.66,1145.38)"><path d="M0.17,-0.15c0.007,0.024 0.021,0.043 0.043,0.058c0.023,0.015 0.051,0.022 0.086,0.022c0.041,0 0.073,-0.012 0.097,-0.035c0.024,-0.023 0.036,-0.055 0.036,-0.095l-0,-0.05c-0,-0.04 -0.012,-0.072 -0.036,-0.095c-0.024,-0.023 -0.057,-0.035 -0.098,-0.035c-0.051,0 -0.089,0.018 -0.114,0.055l-0.092,0l0.005,-0.395l0.396,0l-0,0.082l-0.309,0l-0.003,0.254l0.006,0c0.006,-0.014 0.015,-0.027 0.028,-0.038c0.011,-0.009 0.025,-0.018 0.043,-0.026c0.019,-0.008 0.043,-0.012 0.073,-0.012c0.061,0 0.108,0.019 0.142,0.056c0.035,0.038 0.052,0.089 0.052,0.154l-0,0.05c-0,0.032 -0.005,0.061 -0.016,0.087c-0.011,0.026 -0.026,0.048 -0.046,0.066c-0.019,0.018 -0.043,0.032 -0.071,0.042c-0.028,0.01 -0.059,0.015 -0.094,0.015c-0.061,-0 -0.112,-0.015 -0.151,-0.044c-0.039,-0.029 -0.063,-0.067 -0.072,-0.116l0.095,0Z" style="fill-rule:nonzero;"/></g></g><path d="M436.11,241.837c0.49,-0 0.934,0.075 1.334,0.225c0.399,0.149 0.741,0.364 1.026,0.644c0.284,0.279 0.504,0.611 0.659,0.996c0.155,0.384 0.232,0.811 0.232,1.281c-0,0.469 -0.08,0.896 -0.24,1.281c-0.16,0.384 -0.382,0.716 -0.666,0.996c-0.285,0.279 -0.627,0.494 -1.026,0.644c-0.4,0.15 -0.839,0.225 -1.319,0.225l-2.292,-0l0,4.493l-1.348,0l0,-10.785l3.64,-0Zm-2.292,5.093l2.292,0c0.56,0 1.009,-0.177 1.349,-0.532c0.339,-0.354 0.509,-0.826 0.509,-1.415c-0,-0.589 -0.17,-1.061 -0.509,-1.416c-0.34,-0.354 -0.789,-0.532 -1.349,-0.532l-2.292,0l0,3.895Z" style="fill-rule:nonzero;"/><path d="M443.705,241.837l1.888,-0l2.846,10.785l-1.438,0l-0.749,-3.04l-3.311,-0l-0.764,3.04l-1.408,0l2.936,-10.785Zm2.277,6.621l-1.049,-4.269c-0.049,-0.21 -0.094,-0.402 -0.134,-0.577c-0.04,-0.175 -0.07,-0.332 -0.09,-0.472c-0.02,-0.15 -0.04,-0.284 -0.06,-0.404l-0.06,-0c-0.02,0.12 -0.045,0.254 -0.075,0.404c-0.02,0.14 -0.05,0.297 -0.09,0.472c-0.04,0.175 -0.085,0.367 -0.135,0.577l-1.063,4.269l2.756,0Z" style="fill-rule:nonzero;"/><path d="M453.592,252.772c-0.51,0 -0.966,-0.075 -1.371,-0.224c-0.404,-0.15 -0.749,-0.365 -1.033,-0.645c-0.285,-0.279 -0.505,-0.619 -0.66,-1.018c-0.154,-0.4 -0.232,-0.844 -0.232,-1.333l0,-4.644c0,-0.489 0.078,-0.934 0.232,-1.333c0.155,-0.4 0.375,-0.739 0.66,-1.019c0.284,-0.28 0.629,-0.494 1.033,-0.644c0.405,-0.15 0.861,-0.225 1.371,-0.225c0.509,0 0.966,0.075 1.37,0.225c0.405,0.15 0.749,0.364 1.034,0.644c0.285,0.28 0.504,0.619 0.659,1.019c0.155,0.399 0.232,0.844 0.232,1.333l0,4.644c0,0.489 -0.077,0.931 -0.232,1.325c-0.155,0.395 -0.374,0.732 -0.659,1.011c-0.285,0.28 -0.632,0.497 -1.041,0.652c-0.41,0.155 -0.864,0.232 -1.363,0.232Zm-1.948,-3.22c0,0.619 0.175,1.111 0.525,1.475c0.349,0.365 0.824,0.547 1.423,0.547c0.599,-0 1.073,-0.182 1.423,-0.547c0.349,-0.364 0.524,-0.856 0.524,-1.475l0,-4.644c0,-0.619 -0.175,-1.111 -0.524,-1.476c-0.35,-0.364 -0.824,-0.546 -1.423,-0.546c-0.599,-0 -1.074,0.182 -1.423,0.546c-0.35,0.365 -0.525,0.857 -0.525,1.476l0,4.644Z" style="fill-rule:nonzero;"/><circle cx="414.827" cy="247.23" r="10.616"/><circle cx="396.985" cy="194.939" r="10.616"/><path d="M418.176,200.481c-0.469,0 -0.901,-0.07 -1.296,-0.209c-0.394,-0.14 -0.739,-0.337 -1.033,-0.592c-0.295,-0.255 -0.535,-0.562 -0.719,-0.921c-0.185,-0.36 -0.298,-0.759 -0.337,-1.199l1.348,0c0.08,0.52 0.304,0.937 0.674,1.251c0.369,0.315 0.824,0.472 1.363,0.472c0.629,-0 1.133,-0.192 1.513,-0.577c0.379,-0.384 0.569,-0.891 0.569,-1.52c0,-0.629 -0.195,-1.136 -0.584,-1.521c-0.39,-0.384 -0.909,-0.576 -1.558,-0.576l-1.258,-0l-0,-1.423l2.142,-2.173c0.1,-0.099 0.205,-0.194 0.314,-0.284c0.11,-0.09 0.215,-0.17 0.315,-0.24c0.11,-0.09 0.225,-0.175 0.345,-0.254l-0,-0.03c-0.11,0.01 -0.225,0.02 -0.345,0.03c-0.11,0.009 -0.227,0.017 -0.352,0.022c-0.125,0.005 -0.257,0.007 -0.397,0.007l-3.76,0l0,-1.198l5.992,0l0,1.498l-2.532,2.412c-0.059,0.06 -0.119,0.115 -0.179,0.165c-0.06,0.05 -0.115,0.094 -0.165,0.134c-0.05,0.05 -0.1,0.095 -0.15,0.135c0.539,0 1.026,0.078 1.461,0.232c0.434,0.155 0.804,0.375 1.108,0.66c0.305,0.284 0.542,0.631 0.712,1.041c0.169,0.409 0.254,0.863 0.254,1.363c0,0.509 -0.08,0.966 -0.239,1.37c-0.16,0.405 -0.39,0.749 -0.689,1.034c-0.3,0.285 -0.662,0.504 -1.086,0.659c-0.425,0.155 -0.902,0.232 -1.431,0.232Z" style="fill-rule:nonzero;"/><path d="M424.078,189.546l3.011,0c0.519,0 0.991,0.08 1.416,0.24c0.424,0.16 0.788,0.382 1.093,0.666c0.305,0.285 0.539,0.63 0.704,1.034c0.165,0.404 0.247,0.851 0.247,1.341l0,4.209c0,0.489 -0.082,0.939 -0.247,1.348c-0.165,0.41 -0.399,0.757 -0.704,1.041c-0.305,0.285 -0.669,0.507 -1.093,0.667c-0.425,0.16 -0.897,0.24 -1.416,0.24l-3.011,-0l0,-10.786Zm1.348,9.587l1.663,0c0.629,0 1.136,-0.192 1.52,-0.577c0.385,-0.384 0.577,-0.891 0.577,-1.52l0,-4.209c0,-0.629 -0.192,-1.134 -0.577,-1.513c-0.384,-0.38 -0.891,-0.57 -1.52,-0.57l-1.663,0l0,8.389Z" style="fill-rule:nonzero;"/><circle id="Git" cx="105.416" cy="96.043" r="30" style="fill:none;stroke:#000;stroke-width:2.08px;stroke-linecap:round;stroke-miterlimit:1.5;"/><path d="M93.095,98.627l-0,-4.643c-0,-0.48 0.08,-0.919 0.24,-1.319c0.159,-0.399 0.382,-0.739 0.666,-1.018c0.285,-0.28 0.632,-0.497 1.041,-0.652c0.41,-0.155 0.859,-0.232 1.348,-0.232c0.909,-0 1.653,0.23 2.232,0.689c0.58,0.459 0.959,1.129 1.139,2.007l-1.378,0c-0.1,-0.469 -0.325,-0.836 -0.674,-1.101c-0.35,-0.264 -0.789,-0.397 -1.319,-0.397c-0.599,0 -1.073,0.18 -1.423,0.54c-0.349,0.359 -0.524,0.853 -0.524,1.483l0,4.643c0,0.63 0.175,1.124 0.524,1.483c0.35,0.36 0.824,0.54 1.423,0.54c0.6,-0 1.074,-0.18 1.424,-0.54c0.349,-0.359 0.524,-0.853 0.524,-1.483l-0,-1.273l-2.187,0l-0,-1.198l3.535,-0l0,2.471c0,0.49 -0.077,0.934 -0.232,1.334c-0.155,0.399 -0.375,0.739 -0.659,1.018c-0.285,0.28 -0.629,0.495 -1.034,0.644c-0.404,0.15 -0.861,0.225 -1.371,0.225c-0.499,0 -0.953,-0.075 -1.363,-0.225c-0.409,-0.149 -0.756,-0.364 -1.041,-0.644c-0.284,-0.279 -0.504,-0.619 -0.659,-1.018c-0.155,-0.4 -0.232,-0.844 -0.232,-1.334Z" style="fill-rule:nonzero;"/><path d="M102.307,101.698l0,-1.228l2.996,-0l0,-5.782l-2.621,-0l-0,-1.229l3.97,0l-0,7.011l2.471,-0l0,1.228l-6.816,0Zm3.296,-11.459l0.3,-0c0.289,-0 0.524,0.085 0.704,0.254c0.179,0.17 0.269,0.39 0.269,0.659c0,0.27 -0.09,0.485 -0.269,0.645c-0.18,0.159 -0.415,0.239 -0.704,0.239l-0.3,0c-0.29,0 -0.524,-0.077 -0.704,-0.232c-0.18,-0.155 -0.27,-0.372 -0.27,-0.652c0,-0.269 0.09,-0.489 0.27,-0.659c0.18,-0.169 0.414,-0.254 0.704,-0.254Z" style="fill-rule:nonzero;"/><path d="M110.771,93.459l2.397,0l-0,-2.546l1.348,-0l0,2.546l3.221,0l-0,1.229l-3.221,-0l0,4.883c0,0.28 0.087,0.499 0.262,0.659c0.175,0.16 0.412,0.24 0.712,0.24l2.097,-0l-0,1.228l-2.097,0c-0.709,0 -1.274,-0.195 -1.693,-0.584c-0.419,-0.389 -0.629,-0.904 -0.629,-1.543l-0,-4.883l-2.397,-0l0,-1.229Z" style="fill-rule:nonzero;"/></svg>